# xmcd CD database file
# Copyright (C) 1995-1998 Ti Kan
#
# Track frame offsets:
#	150
#	21177
#	38577
#	62595
#	81822
#	98213
#	114347
#	133319
#	155344
#	174256
#	194382
#	212400
#	231119
#	247883
#	268069
#	286926
#
# Disc length: 4114 seconds
#
# Revision: 3
# Processed by: cddbd v1.4b41PL2 Copyright (c) Steve Scherf et al.
# Submitted via: CDex 1.40(한글화제작자:pch@piamail.net)
#
DISCID=d0101010
DTITLE=강성훈 - 솔로1집
DYEAR=1900
DGENRE=Blues
TTITLE0=축복
TTITLE1=so da
TTITLE2=영원히
TTITLE3=트랙 4
TTITLE4=트랙 5
TTITLE5=트랙 6
TTITLE6=지난 1년 동안은
TTITLE7=트랙 8
TTITLE8=트랙 9
TTITLE9=트랙 10
TTITLE10=트랙 11
TTITLE11=트랙 12
TTITLE12=트랙 13
TTITLE13=트랙 14
TTITLE14=트랙 15
TTITLE15=트랙 16
EXTD=ID3G:   0
EXTT0=
EXTT1=
EXTT2=
EXTT3=
EXTT4=
EXTT5=
EXTT6=
EXTT7=
EXTT8=
EXTT9=
EXTT10=
EXTT11=
EXTT12=
EXTT13=
EXTT14=
EXTT15=
PLAYORDER=
